<svg xmlns="http://www.w3.org/2000/svg" xmlns:xlink="http://www.w3.org/1999/xlink" width="1000" zoomAndPan="magnify" viewBox="0 0 750 749.999995" height="1000" preserveAspectRatio="xMidYMid meet" version="1.2"><defs><clipPath id="1bbf299186"><path d="M 6.398438 6.402344 L 743.597656 6.402344 L 743.597656 743.601562 L 6.398438 743.601562 Z M 6.398438 6.402344 "/></clipPath><clipPath id="3056c96a9d"><path d="M 375 6.402344 C 171.429688 6.402344 6.398438 171.429688 6.398438 375 C 6.398438 578.570312 171.429688 743.601562 375 743.601562 C 578.570312 743.601562 743.597656 578.570312 743.597656 375 C 743.597656 171.429688 578.570312 6.402344 375 6.402344 Z M 375 6.402344 "/></clipPath></defs><g id="27ea1771d9"><g clip-rule="nonzero" clip-path="url(#1bbf299186)"><g clip-rule="nonzero" clip-path="url(#3056c96a9d)"><path style=" stroke:none;fill-rule:nonzero;fill:#ffffff;fill-opacity:1;" d="M 6.398438 6.402344 L 743.597656 6.402344 L 743.597656 743.601562 L 6.398438 743.601562 Z M 6.398438 6.402344 "/></g></g><path style=" stroke:none;fill-rule:nonzero;fill:#005f85;fill-opacity:1;" d="M 464.3125 409.609375 L 269.121094 409.609375 L 262.011719 432.960938 L 314.050781 432.960938 L 323.980469 465.164062 L 409.496094 465.164062 L 419.382812 432.960938 L 471.421875 432.960938 Z M 464.3125 409.609375 "/><path style=" stroke:none;fill-rule:nonzero;fill:#005f85;fill-opacity:1;" d="M 300.953125 278.402344 C 293.710938 288.382812 290.804688 300.578125 292.714844 312.777344 C 294.664062 324.972656 301.257812 335.648438 311.1875 342.898438 L 357.890625 376.882812 C 360.40625 378.707031 362.054688 381.355469 362.53125 384.433594 C 363.007812 387.472656 362.273438 390.554688 360.492188 393.027344 L 367.5625 398.105469 L 392.238281 364.035156 C 398.003906 356.050781 401.039062 346.675781 401.039062 336.996094 C 401.039062 334.566406 400.867188 332.089844 400.476562 329.660156 C 398.523438 317.464844 391.976562 306.785156 382.003906 299.539062 L 335.253906 265.554688 C 332.738281 263.730469 331.09375 261.039062 330.613281 258 C 330.527344 257.394531 330.484375 256.742188 330.484375 256.136719 C 330.484375 253.703125 331.265625 251.359375 332.695312 249.40625 C 332.695312 249.40625 325.671875 244.285156 325.671875 244.285156 L 300.996094 278.359375 Z M 300.953125 278.402344 "/><path style=" stroke:none;fill-rule:nonzero;fill:#005f85;fill-opacity:1;" d="M 329.097656 141.855469 C 320.726562 153.398438 316.347656 167.027344 316.347656 181.046875 C 316.347656 184.605469 316.609375 188.164062 317.171875 191.722656 C 319.992188 209.390625 329.53125 224.929688 343.972656 235.429688 L 402.6875 278.011719 C 410.449219 283.652344 415.523438 291.941406 417.042969 301.40625 C 417.347656 303.3125 417.519531 305.222656 417.519531 307.089844 C 417.519531 314.597656 415.175781 321.890625 410.667969 328.097656 L 416.304688 332.175781 L 462.574219 268.15625 C 473.070312 253.703125 477.320312 235.996094 474.5 218.289062 C 471.683594 200.621094 462.1875 185.128906 447.703125 174.578125 L 376.800781 123.015625 C 372.332031 119.761719 369.382812 114.988281 368.515625 109.5625 C 367.648438 104.136719 368.949219 98.667969 372.203125 94.195312 L 366.566406 90.117188 L 329.097656 141.808594 Z M 329.097656 141.855469 "/><path style=" stroke:none;fill-rule:nonzero;fill:#005f85;fill-opacity:1;" d="M 209.148438 484.652344 L 262.617188 484.652344 C 275.800781 484.652344 286.164062 488.300781 292.714844 494.855469 C 297.960938 500.105469 300.605469 506.527344 300.605469 514.472656 L 300.605469 514.777344 C 300.605469 527.796875 293.710938 535.046875 285.472656 539.644531 C 298.785156 544.765625 307.023438 552.492188 307.023438 567.988281 L 307.023438 568.335938 C 307.023438 589.429688 289.894531 599.976562 263.917969 599.976562 L 209.105469 599.976562 L 209.105469 484.652344 Z M 257.195312 531.269531 C 268.386719 531.269531 275.453125 527.667969 275.453125 519.074219 L 275.453125 518.769531 C 275.453125 511.171875 269.554688 506.917969 258.84375 506.917969 L 233.824219 506.917969 L 233.824219 531.3125 L 257.195312 531.3125 Z M 263.960938 577.710938 C 275.152344 577.710938 281.914062 573.761719 281.914062 565.210938 L 281.914062 564.863281 C 281.914062 557.136719 276.148438 552.363281 263.136719 552.363281 L 233.867188 552.363281 L 233.867188 577.710938 Z M 263.960938 577.710938 "/><path style=" stroke:none;fill-rule:nonzero;fill:#005f85;fill-opacity:1;" d="M 318.125 484.652344 L 371.59375 484.652344 C 384.777344 484.652344 395.144531 488.300781 401.734375 494.855469 C 406.980469 500.105469 409.625 506.527344 409.625 514.472656 L 409.625 514.777344 C 409.625 527.796875 402.730469 535.046875 394.492188 539.644531 C 407.804688 544.765625 416.042969 552.492188 416.042969 567.988281 L 416.042969 568.335938 C 416.042969 589.429688 398.957031 599.976562 372.941406 599.976562 L 318.125 599.976562 Z M 366.175781 531.269531 C 377.363281 531.269531 384.429688 527.667969 384.429688 519.074219 L 384.429688 518.769531 C 384.429688 511.171875 378.492188 506.917969 367.824219 506.917969 L 342.800781 506.917969 L 342.800781 531.3125 L 366.175781 531.3125 Z M 372.894531 577.710938 C 384.085938 577.710938 390.847656 573.761719 390.847656 565.210938 L 390.847656 564.863281 C 390.847656 557.136719 385.082031 552.363281 372.074219 552.363281 L 342.757812 552.363281 L 342.757812 577.710938 Z M 372.894531 577.710938 "/><path style=" stroke:none;fill-rule:nonzero;fill:#005f85;fill-opacity:1;" d="M 427.058594 484.652344 L 480.527344 484.652344 C 493.710938 484.652344 504.078125 488.300781 510.667969 494.855469 C 515.914062 500.105469 518.5625 506.527344 518.5625 514.472656 L 518.5625 514.777344 C 518.5625 527.796875 511.664062 535.046875 503.425781 539.644531 C 516.78125 544.765625 524.980469 552.492188 524.980469 567.988281 L 524.980469 568.335938 C 524.980469 589.429688 507.847656 599.976562 481.875 599.976562 L 427.101562 599.976562 L 427.101562 484.652344 Z M 475.109375 531.269531 C 486.296875 531.269531 493.367188 527.667969 493.367188 519.074219 L 493.367188 518.769531 C 493.367188 511.171875 487.425781 506.917969 476.757812 506.917969 L 451.734375 506.917969 L 451.734375 531.3125 L 475.109375 531.3125 Z M 481.832031 577.710938 C 493.019531 577.710938 499.785156 573.761719 499.785156 565.210938 L 499.785156 564.863281 C 499.785156 557.136719 494.015625 552.363281 481.007812 552.363281 L 451.691406 552.363281 L 451.691406 577.710938 Z M 481.832031 577.710938 "/><path style=" stroke:none;fill-rule:nonzero;fill:#005f85;fill-opacity:1;" d="M 540.632812 591.773438 C 540.632812 596.375 537.035156 599.976562 532.351562 599.976562 C 527.667969 599.976562 524.023438 596.375 524.023438 591.773438 C 524.023438 587.171875 527.710938 583.699219 532.351562 583.699219 C 536.992188 583.699219 540.632812 587.304688 540.632812 591.773438 Z M 526.105469 591.773438 C 526.105469 595.375 528.75 598.242188 532.394531 598.242188 C 536.035156 598.242188 538.550781 595.375 538.550781 591.816406 C 538.550781 588.257812 535.949219 585.304688 532.351562 585.304688 C 528.75 585.304688 526.105469 588.214844 526.105469 591.773438 Z M 531.050781 596.027344 L 529.183594 596.027344 L 529.183594 587.953125 C 529.921875 587.824219 530.964844 587.695312 532.308594 587.695312 C 533.824219 587.695312 534.519531 587.953125 535.125 588.300781 C 535.558594 588.648438 535.90625 589.300781 535.90625 590.082031 C 535.90625 590.949219 535.214844 591.644531 534.214844 591.945312 L 534.214844 592.035156 C 534.996094 592.335938 535.429688 592.902344 535.691406 593.988281 C 535.949219 595.203125 536.082031 595.722656 536.296875 596.027344 L 534.257812 596.027344 C 534 595.722656 533.867188 594.984375 533.609375 594.074219 C 533.476562 593.207031 532.957031 592.773438 531.917969 592.773438 L 531.050781 592.773438 Z M 531.136719 591.425781 L 532.003906 591.425781 C 533.042969 591.425781 533.867188 591.078125 533.867188 590.253906 C 533.867188 589.515625 533.304688 589.039062 532.132812 589.039062 C 531.65625 589.039062 531.308594 589.082031 531.09375 589.125 L 531.09375 591.425781 Z M 531.136719 591.425781 "/></g></svg>