<svg xmlns="http://www.w3.org/2000/svg" xmlns:xlink="http://www.w3.org/1999/xlink" width="1000" zoomAndPan="magnify" viewBox="0 0 750 749.999995" height="1000" preserveAspectRatio="xMidYMid meet" version="1.2"><defs><clipPath id="9885ea0a1f"><path d="M 10.246094 11 L 739.996094 11 L 739.996094 740.578125 L 10.246094 740.578125 Z M 10.246094 11 "/></clipPath></defs><g id="9114fb23bc"><g clip-rule="nonzero" clip-path="url(#9885ea0a1f)"><path style=" stroke:none;fill-rule:nonzero;fill:#53565a;fill-opacity:1;" d="M 739.546875 374.972656 C 739.410156 577.9375 576.917969 740.570312 374.445312 740.414062 C 172.328125 740.246094 10.296875 577.019531 10.601562 373.761719 C 10.910156 172.957031 176.621094 9.460938 379.433594 11.148438 C 576.660156 12.765625 739.683594 176.296875 739.546875 374.972656 Z M 594.003906 522.507812 C 658.242188 433.351562 661.375 286.253906 560.171875 187.097656 C 457.4375 86.441406 311.535156 95.808594 228.40625 156.707031 C 350.085938 278.472656 471.882812 400.320312 594.003906 522.507812 Z M 155.515625 229.511719 C 90.136719 321.550781 88.65625 473.058594 197.847656 572.128906 C 301.042969 665.769531 442.992188 653.113281 521.011719 594.972656 C 399.316406 473.296875 277.570312 351.566406 155.515625 229.511719 Z M 155.515625 229.511719 "/></g></g></svg>